<?xml version="1.0" encoding="UTF-8"?>
<svg id="Layer_2" data-name="Layer 2" xmlns="http://www.w3.org/2000/svg" viewBox="0 0 155.5474 56.9433">
  <path d="M105.6792,44.9655c-.339-.0386-1.4-.1597-2.3113-.2635.0626-.1948.1256-.3898.185-.5748.1948-.6036.0703-1.0301-.1807-1.1588-.0533-.0276-.1128-.0343-.1729-.0332.0924-.3633.1923-.7269.3026-1.0916.1868-.6015-.0125-1.0367-.3271-1.1707-.0327-.014-.0684-.0103-.1025-.0175-.1986-.1973-.4812-.2442-.7095-.0739-.0181-.0001-.0358.0032-.0541.0051-.1089-.3203-.3596-.4766-.6224-.446-.254-.502-.8823-.501-1.1761.0588-.0354.068-.0626.1382-.0949.207-.0802.0031-.1575.027-.2302.0662-.0055-.1343-.007-.2667-.0135-.4015-.0322-1.1268-1.3356-1.2798-1.4294-.2798-.1328,1.3676.0017,2.7159.2609,4.0789-.0247.0895-.0333.1959-.028.3202-.3776-.0418-.6873-.0739-.8421-.0851-.5778-.039-.8623.5131-1.2468,1.7861.5707,1.201.9346,1.7043,1.5,1.5789.191-.0434.6199-.1561,1.1194-.2906.2316,1.2485.4561,2.4968.6996,3.7454.1245.585.2508.8849.34.9219.0112.0726.023.1449.0342.2175.1037.6005.1981.9037.262.9256.0021.0158.0046.0316.0067.0474.1182.8193.1976,1.0866.2309.8193.0471.5677.082.7261.1158.4835v.0015c.0032.5569.0002.8502.0088.906-.0029.1046-.0036.1651-.001.176-.0417.5777-.051.3873.1202-.5951l.0745-.4738c.0262-.136.0555-.2925.0922-.4943l.0356-.2159c.0279-.1241.0582-.2658.0927-.4387l.2739-1.3569c.0731.0546.1954-.1598.3447-.6664.1219-.4345.3285-1.2208.4221-1.8479.0674-.4346.064-.7871-.0446-.8986.0198-.1436.0289-.2735.0237-.3812.13-.6091.2535-1.2207.3736-1.8336.9504-.2567,2.3187-.6262,2.7077-.7313.5632-.1554.8765-.3243,1.3537-.3655-.478.0306-.813-.0894-1.3932-.1588Z" style="fill: currentColor; stroke-width: 0px;"/>
  <path d="M62.8817,50.2164c-.2318-.3146-.5076-.5659-.7954-.7554-.5773-.3823-1.1931-.5486-1.7872-.5695-.6691-.0101-.9727.2053-.98.2832-.0652.0158-.1317.0286-.1953.0483-.5509.1953-.7359.425-.7263.478-.0102.0065-.0234.0101-.0335.0167-.4426.2906-.5829.514-.5671.5408.008.012.0441-.0007.0939-.0233-.2445.199-.34.3365-.3295.3495.0065.0084.0421-.0082.0918-.0348l-.0012.0008c-.3275.2638-.4664.4385-.4932.4736-.0338.0354-.0585.062-.0728.0787-.0699.0656-.1243.1186-.1552.1509-.0024-.0294-.002-.0648-.0059-.0931-.0025-.1913-.0044-.3769-.0171-.538-.075-.1575-.2061-.2853-.3582-.3674-.152-.082-.3246-.118-.4804-.0911-.0876.0469-.1236-.0505-.2632.2354-.1161.2159-.2228.5453-.2507.762-.1898,1.2157.1643,2.2793.7683,3.1183.6091.8279,1.5941,1.5187,2.8129,1.6573l.2244.019.1118.0062.0278.0012.1794.0125.0027-.0006.0052-.0011.0211-.0045.1689-.0377c.0481-.0037.1036-.0115.157-.0179.0132.0012.0272.0024.0403.0035.1245.006.2633.0027.4127-.0134.2703-.0367.4931-.0966.7562-.2239.8934-.4368,1.477-1.0999,1.8528-1.8386.3688-.7371.5267-1.6315.3153-2.507-.1288-.4854-.2543-.6906-.5302-1.1188ZM60.3518,51.6815l-.0014.0007-.0028.0014-.0208.0098c-.0447.02-.1018.0285-.1545.0369-.0159.0022-.0353.0031-.0526.0052.0297-.032.0614-.0687.084-.0847.0604-.0447.0508-.0308.0215-.0203-.0171.0079-.0361.0135-.0536.0184-.0468.0153-.1243.0339-.1991.049-.0256.0046-.0544.0114-.0814.0165-.0135.0021-.025.004-.0395.006-.0011-.0005-.0027-.0001-.0038-.0007-.0133-.009-.015-.0071-.0193-.0079-.0118-.0107-.0095.0081-.0067.013-.0654.0087-.1382.0169-.2156.022-.1417.0112-.299.0418-.424.1047-.0204.004-.0393.0096-.0597.0148-.0952-.0742-.2366-.12-.4087-.1517-.077-.0126-.1606-.0126-.2446-.0031-.0931-.113-.2101-.2056-.3591-.2711-.2569-.1135-.6427-.0624-.8102.3811-.0287.0794-.0298.1674-.0488.2502-.0827.015-.1605.0505-.226.1125-.0344-.1631-.059-.3315-.068-.5073-.0129-.148-.0156-.2841-.0261-.416.0721-.0627.2399-.1985.5298-.3744.1396-.0878.2884-.1545.4365-.2209.0647-.0263.1296-.0529.2093-.082.0979-.0372.1944-.0516.2919-.077.0521-.0104.0994-.0207.1591-.0312.3124-.0549.6212-.0298.8818.0457-.0065.0713.1066.1755.3033.3337.1859.136.4152.4551.456.6288.0291.0858.126.1193.1452.1115.0075.0262.0156.0509.0244.0742.0003.0066.0012.0162.0011.0211,0,0-.0089.0214-.0175-.0089Z" style="fill: currentColor; stroke-width: 0px;"/>
  <path d="M86.0713,55.4655c-.0253-.037-.0367-.0555-.0667-.0988-.0386-.0545-.0718-.1109-.1096-.1657-.0293-.0518-.0457-.0853-.0837-.1496-.1365-.2165-.2533-.4466-.3685-.6742.0682-.0359.069-.1897-.0139-.4727-.1432-.4074-.3979-1.3083-.6869-1.2432-.0267-.0563-.0564-.1006-.088-.1365-.1411-.4556-.2659-.91-.3763-1.3509-.0052-.0281-.0183-.0437-.0266-.0673-.0051-.2268-.0027-.4503.0066-.6541.0178-.3359-.1888-.4402-.4382-.3768-.0089.0023-.0178.0086-.0267.0114-.0353-.0819-.0765-.1467-.1238-.2046.0031-.1099.0003-.2187.0115-.3303.0353-.3279-.2252-.4266-.543-.3615-.0325.0068-.0643.0225-.0969.0328-.2232-.0092-.4923.0787-.6651.2477-.0176.0074-.034.0164-.0513.0249-.1697-.1065-.4353-.087-.6703.0284-.3453-.1512-.9246.0684-1.0741.4813-.0165.0494-.0239.0975-.037.1464-.0685.0314-.1315.0707-.1862.1168-.0237-.0549-.0381-.1057-.0651-.1621-.1697-.367-.5776-.4755-.9081-.3726-.1666.0474-.3089.1482-.4005.2751-.1158.1155-.1794.2623-.136.4343.0474.1865.1091.3661.1823.5397.0198.0676.04.1406.0573.1812.005-.0015.015.0654.0183.0055l.0127.0914c.0039.0257.0087-.0132.0087-.0132.0132-.0322.0256-.0069.0395.0049.0591.1149.1195.2288.189.3378-.1449.0924-.3156.1735-.52.2128-.5226.1025-1.1763-.0004-1.7015-.3771-.281-.1956-.4691-.335-.5641-.3365-.0317-.0435-.0686-.0789-.0984-.1253-.2195-.3478-.3456-.5615-.4092-.5778-.0042-.013-.0113-.0241-.0153-.0372-.1377-.4501-.1791-.7101-.2184-.7128-.0105-.0022-.0233.0292-.035.0764-.0165-.3146-.0042-.4856-.0298-.4899-.0062-.002-.0254.0377-.0469.0971.0002-.0013.0002-.0026.0004-.0038.0408-.2532.0956-.4391.1337-.5624.0284-.1021.0491-.1495.0535-.1687.0195-.0463.0348-.0831.0437-.1055.091-.1768.1566-.2679.1566-.2679-.0409.0565-.0815.1124-.1152.1589-.0779.1066-.1885.2725-.3118.515-.029.0604-.0428.1293-.0687.1916-.0641.1212-.1505.3163-.2288.6191-.0077.0325-.007.068-.0139.1008-.0379.1269-.0753.2812-.1007.4938-.0441.4216-.0234.8661.0621,1.3129-.1068-.0502-.1525.1873-.0081.7615.1186.4646.5748,1.2864,1.1475,1.7408.3904.3312.7679.4775.9261.4175.1297.0696.2508.1188.3605.1486.8931.467,1.9733.6818,3.151.4704.0667-.0132.1131-.0408.174-.0587.4742-.0772.9906-.2672,1.465-.5764.4453.2742.897.5297,1.3591.7476.3503.1494.5703.1731.6376.1135.0359.0179.0702.042.1062.0596.324.1572.5286.1799.5748.1409.0077.0038.0153.0087.0229.0125.4451.1987.5903.2148.4791.0861.2852.1553.3816.1821.291.0708.0063.0048.0122.0103.0186.0151.2391.1826.3796.2614.4088.2772.0426.033.0773.0597.0806.058.2343.2104.142.1581-.1983-.2814-.0886-.1121-.1673-.2285-.252-.3423Z" style="fill: currentColor; stroke-width: 0px;"/>
  <path d="M94.7651,45.6567c-1.196-.7188-2.451-.7402-3.4619-.4788-.515.1349-.994.3489-1.4364.6398-.2208.1472-.4326.3135-.6324.499l-.0783.0664-.008.0097-.0161.0193-.032.0389-.0637.0782-.27.3063c-.1777.2271-.3201.4567-.4471.6866-.1547.1444-.3097.3395-.4343.6423-.2736.6774-.4094,1.3137-.4868,1.9008-.0403.3092-.0572.5359-.0915.9175-.0238.3708-.0629.8845.129,1.5141.2021.6769.6712,1.1431.9833,1.3575.3168.2121.5995.3647.9158.4908.6171.2551,1.2507.3757,1.8594.3914.6951.0036,1.0165-.169,1.027-.2479.0699-.0099.143-.0094.212-.0222.6207-.1211.8866-.3121.8893-.3681.0135-.0048.0283-.007.0418-.0118.5668-.2183.7936-.4288.7838-.4544-.0057-.0145-.0497-.0074-.1119.0078.3311-.1677.4778-.3.4698-.313-.0051-.0103-.0515.0032-.1175.0253.002-.001.004-.0016.006-.0026.4414-.2365.6362-.4166.673-.4523.0813-.065.1266-.1089.1266-.1089,0,0-.0071.0048-.0081.0055.0224-.0178.0541-.0393.0724-.0554.0489-.0382.1068-.0834.1653-.1291,0,0-.221.1891-.7227.4117-.1855.0801-.3766.1317-.5676.1816-.0757.0175-.1492.0351-.241.0525-.1327.0251-.2651.0279-.3978.0396-.0529.0023-.0978.0054-.1571.0068-.3859.006-.7596-.0551-1.1113-.1573.022-.0709-.128-.1915-.4489-.3702-.2946-.1553-.7273-.5066-.9783-.7761-.0697-.0682-.1338-.1292-.1926-.1774.0055-.0084.0128-.018.0267-.0289.0643-.0798.179-.2996.2854-.4787.1071-.1806.2162-.3486.3263-.4997.016-.0212.0211-.0378.0345-.0579.2183-.2006.4387-.3585.624-.4275.1425-.049.2279-.1118.2112-.1561-.1068.0289.105-.2769-.0675-.2961-.0252-.0466-.0634-.0922-.102-.1382.1198.0184.2523.058.3544.1356.1577.1431.1258-.0474.2124-.3646.0071-.0311.0118-.0673.0185-.1009.0255-.0751.0523-.1581.0856-.253.0448-.1363.0709-.2962.0442-.4373.0034-.02.0045-.0392.0066-.0596.1301-.0565.238-.1627.3404-.3122.043-.0649.0743-.1421.0953-.2236.1608-.0358.305-.1008.4296-.2105.2147-.1865.3016-.575-.1095-.9216-.076-.0607-.1686-.0936-.251-.1444.0158-.0803.0124-.1641-.0248-.2466.1839.0312.3699.0737.5583.1348.5358.1902.9501.3722,1.2834.4135l.4315.8057c.2876.1157.6202.0478.8021-.1706l-.6463-1.2082c-.0803-.2588-.3289-.6242-.8107-.9175Z" style="fill: currentColor; stroke-width: 0px;"/>
  <path d="M114.0034,51.8629c-.0908-.1561-.1843-.2889-.2873-.3946-.3502-.4744-.8505-.8832-1.4568-1.2646-.1157-.0521-.2144-.1437-.3245-.2123l-.2623-.1544-.3173-.2096c.1644-.0632.2669-.2224.3236-.4442.0078-.0315.0037-.0676.0072-.1013.0474-.0808.0868-.1691.1083-.269.0308-.1447.0095-.3091-.0816-.443-.0005-.0186-.0044-.0362-.0067-.0549.1923-.081.3304-.2043.4033-.3754.0311-.0726.042-.1537.0387-.2369.1934-.0721.3383-.1768.4243-.3204.1516-.2509.0762-.6306-.4145-.8585-.0895-.0411-.1918-.0589-.2861-.0917-.0024-.0832-.0303-.1646-.0883-.2388.1924-.007.386-.0057.5804.0076.8139.0614,1.3734-.0266,1.5905-.3242.2128-.2704-.0194-.8004-.9546-1.0292-1.0947-.2534-2.2307-.1778-3.2761.2001-.5349.1972-.9955.434-1.506.8091-.2629.1973-.5563.4496-.8416.8035-.1417.1766-.2797.379-.3998.6047l-.0442.0853-.0108.0214-.0794.1572-.0011.0037-.0044.015-.0174.0598-.0172.0599-.0732.2073c-.0521.1581-.1055.3542-.1259.4866-.0189.1252-.0331.2512-.0428.3765-.0105.243-.004.4896.0314.7089.0089.0618.0288.1133.0404.1728.0129.4459.1551.9886.4865,1.4828.4512.6654.9877,1.1276,1.6431,1.4933.5575.2849,1.0566.4218,1.464.5184.2809.0665.1967.0503.2145.0527l.007.0098c.0068.0054-.0024.0146.0101.0162-.0186.0213-.0354.0166-.0419.0128.0173-.002.0241.069.0219.144-.0178-.0018-.0333.0042-.0516.0015-.5781.0179-.9111.0056-.96.0584-.0179-.0029-.0356-.0038-.0536-.0068-.6368-.1238-.963-.2453-.9838-.2068-.0054.0073.0242.035.0727.0708-.3872-.1633-.5841-.2723-.5965-.2529-.0051.006.0374.0493.1042.1064-.0032-.002-.0066-.0035-.0098-.0056-.2874-.1899-.4885-.3534-.6212-.4648-.1063-.0931-.1563-.1409-.1774-.1568-.0324-.0319-.0661-.0651-.1009-.0993-.1082-.1216-.1899-.2219-.2286-.2756.0375.0546.0756.1099.1091.1586.0984.145.2538.3608.4998.6203.0462.0496.1058.0868.1541.1345.0239.0262.0399.0458.0741.0804.1246.1309.3218.3217.6221.5317.0341.0244.0746.0405.1094.0641.1368.1044.3068.2233.5499.3616.274.156.5659.283.8676.3965.164.0637.2749.0959.4939.1567.1249.0696.2592.1059.3953.1348-.0263.0157-.0261.037.0366.0773.0826.0388.2662.1403.5305.1787.2682.0142.5764-.0222,1.069-.0116.4578.0418.8906-.0854,1.233-.2699.2971-.2114.5444-.4131.6786-.7213.0945-.149.166-.3387.194-.5353.0416-.1957.0648-.3956.0497-.5798-.0107-.3727-.1481-.6698-.2795-.8419-.0609-.1134-.1478-.1697-.214-.1907Z" style="fill: currentColor; stroke-width: 0px;"/>
  <path d="M55.1295,49.3844c-.0197-.0826-.0501-.1687-.1013-.2546-.085-.1446-.2007-.2756-.3203-.3686-.0006-.0009-.0012-.0018-.0019-.0026.0233-.1066-.0176-.2563-.113-.4084-.0379-.0616-.092-.1176-.1398-.1774-.0298-.2877-.462-.7853-.7195-.9494-.0327-.0225-.0541-.0296-.0847-.0494-.0484-.0673-.0979-.1293-.1465-.1858.012-.0173.0329-.0318.043-.0497.0371-.0915-.0899-.3262-.3122-.5786-.2045-.2398-.4927-.5206-.55-.5668-.0627-.0701-.1187.0917-.2553.4008-.0182.0426-.046.1071-.0668.155-.0507-.0163-.0975-.0078-.1292.0645-.1619.3029-.3724.6348-.5975,1.0235-.1256-.0458-.2792-.059-.4323-.0433-.0933-.0817-.2252-.1348-.3772-.1657-.273-.0538-.6259.0101-.7948.2402-.034.0369-.0596.0743-.0903.1113-.0782.0052-.1531.0201-.223.0422-.0107-.0743-.0173-.142-.0293-.2186-.0365-.38-.2893-.6244-.6104-.7035-.3088-.0784-.7546.0494-.8151.5011-.0442.3164-.0312.4512-.0323.5912.0048.1471.0207.2934.0463.4392.051.2916.1406.5811.2578.8703.0339.0836.0843.1676.1226.2512-.0404.0757-.053.1686.0042.2908.461,1.0582.9397,2.1157,1.4362,3.1726.1446.2852.2812.4287.3716.4431.0137.0356.028.071.0417.1066.1244.2938.2292.4403.2938.4483.0026.0078.0057.0155.0082.0233.1464.4019.235.5312.2591.397.0665.28.1071.3571.1324.235,0,0,0,.0005,0,.0008.0225.2768.0297.4227.0402.4499.0007.0519.002.0819.0051.0873-.0216.2891-.0375.1949.0995-.301l.058-.2386c.0215-.0688.0453-.1479.0751-.2499l.028-.1085c.0236-.0629.049-.1348.0775-.2224l.2291-.6941c.0749.0234.1873-.0809.3187-.3389.1068-.2213.2859-.6212.3577-.937.0519-.2173.0321-.3856-.0779-.4377.0161-.075.0219-.1426.0126-.1974.1309-.3713.2576-.7432.3727-1.1165.2438.0371.5512.1426.3976-.0842.0126-.0008.0341.0056.0411.0002.2077.0681.4262.1405.6816.1789.0186.0037.0277-.0038.0422-.005.1353.0618.2739.1245.4141.1777.2309.0906.2987-.0931.2147-.3351-.0175-.0521-.0439-.106-.073-.1591.1432.0219.2975.0449.4675.0677.2886.0356.3379-.2469.1967-.5345-.0142-.0299-.0358-.0579-.053-.0874Z" style="fill: currentColor; stroke-width: 0px;"/>
  <path d="M48.6491,45.4861c.0095-.0174.0212-.0337.021-.0556.0676-.1763.1064-.342.1284-.4954l.0283-.0719c.0603-.184.1004-.4352.094-.6568.002-.2288-.0183-.4615-.0416-.6942l-.072-.3477c.0473-.1362-.0552-.251-.0701-.3595-.2912-.8412-.7974-1.4982-1.364-2.0264-.0786-.0714-.1473-.1101-.2216-.1661-.4424-.439-.928-.8094-1.4294-1.093-.7999-.4686-1.4755-.408-1.6725-.1823-.045.051-.0602.109-.0641.1689-.4937-.1479-1.006-.2599-1.5361-.3301-.8879-.1245-1.4791.2514-1.5598.5993-.0092.0373.0057.0694.0059.1049-.0817.104-.1384.2112-.1384.3129-.0008.1613.0828.2983.2456.3948.0052.018.0144.0345.0222.0519-.2393.1469-.3685.3398-.3669.5189,0,.0668.0175.1304.0435.1914-.0434-.0009-.0859-.0027-.1295.0054-.2911-.4291-.9197-.373-1.1672.1479-.03.063-.0416.1286-.0686.192-.0841.0081-.1638.0345-.237.0771-.0153-.1187-.0251-.2363-.0419-.3553-.1213-.997-1.4312-1.0086-1.4464-.1279-.0273,1.2051.193,2.3743.5204,3.5579-.033.1307-.0408.2878.0175.4949.4861,1.8831.947,3.7877,1.3762,5.7142.1238.5146.2488.7813.338.8204.0112.066.0251.131.0361.197.0992.5339.1911.8054.2548.8292.002.0147.0049.0292.0068.0439.1072.732.183.9754.22.7424.0372.5071.0694.6488.1072.4328v.0011c-.009.4919-.0181.7538-.0115.8106-.0053.0938-.0075.1474-.0054.1592-.0565.5195-.0612.3491.1351-.5289.0225-.1118.0408-.225.0629-.337.0325-.1339.0715-.3024.1224-.5295.0117-.0583.0214-.1174.0331-.1758.031-.1151.0647-.2466.1039-.4112l.2864-1.2346c.0733.0498.1945-.1292.3419-.5876.1222-.3929.3226-1.1072.407-1.6783.0602-.3926.0507-.7106-.0574-.8127.0174-.1312.0235-.2501.0143-.3479.0975-.4686.1887-.9393.2742-1.4123.0573.0074.102.016.1653.0227.5217.0557,1.0542.0522,1.5914.019-.0776.0974.1896.1613.8491.1218.4786-.0331,1.3092-.1876,1.9973-.4773l.129-.0518.1999-.1069.3749-.2063c.2266-.1249.457-.2661.6573-.4017.3084-.2095.5015-.3582.4899-.4703ZM45.5896,44.2813l-.0032.0007s-.0002-.0031-.0113.0065l-.2026.1761c-.2977.27-.632.5059-.9844.7305-.4593.2866-.7165.4699-.7552.5712-.0723.03-.1394.0677-.2128.0958-.5552.2143-.857.335-.8873.3987-.0184.0041-.0353.0121-.0537.0161-.0594.0132-.103.022-.1571.0337.014-.0859.0314-.1708.0449-.2568.0096-.0565.0057-.0986.0098-.1493.1058-.3638.2139-.7306.3116-1.0667.113-.3875.0712-.6816-.0467-.8654.3632-.0732.7373-.1317,1.1318-.1613.125-.0096.2537-.0068.381-.0073.0801.058.1774.1016.3064.104.3593.0115.7557.1495.9942.2689l.16.0786c-.0172.0031-.0015.0063-.006.0101-.0115.0045-.0142.0172-.0193.0159Z" style="fill: currentColor; stroke-width: 0px;"/>
  <path d="M73.9537,50.8748c-.3865-2.4766-.8063-4.9537-1.2798-7.4224-.1412-.6733-.277-1.0145-.3671-1.0484-.0132-.0818-.0254-.1636-.0387-.2454-.1248-.6876-.23-1.032-.2946-1.0507l-.0078-.0523c-.1537-.9387-.2444-1.2365-.2656-.9174-.0742-.6522-.1169-.8336-.1394-.5536v-.0024c-.0353-.658-.0484-.9971-.0604-1.0404-.0033-.1198-.006-.1917-.0095-.1977.0057-.6532.0264-.4343-.0829.6902-.0264.2989-.0637.596-.0923.8945-.0084.0724-.0157.133-.025.2148l-.0317.2728c-.0213.136-.0442.2927-.0694.4769l-.2273,1.5505c-.0745-.0554-.1906.1926-.3256.7681-.1094.4965-.3003,1.3936-.384,2.1069-.0602.4941-.0523.894.0574,1.0193-.0174.157-.0245.2983-.0192.4174-.0146.0822-.028.1649-.0426.247-.4849-.2098-1.0227-.1722-1.4772-.0574.0354-.1042-.2322-.1212-.8041.0491-.2294.0752-.5374.1977-.8392.3364-.1436.0681-.2914.1382-.441.2091l-.1035.0513-.1859.1341c-.1288.0941-.221.1869-.3127.2814-.3519.3773-.515.7253-.5621.9467-.0201.0903-.0151.1541.0032.2013-.0862.1816-.1373.3419-.1605.4802-.1596.3766-.2881.7638-.3607,1.1848-.0586.3452-.0783.7183-.0353,1.1384.0181.1169.0179.1926.0569.3445.0373.1458.0906.3102.1372.4382l.0541.1816.1405.2634.0894.1562c.0767.1188.1531.2199.2286.3105.3655.5757.8028.9825,1.2618,1.323.8015.5649,1.5024.4981,1.6842.2719.0397-.0506.0521-.1066.0573-.1638.0278.0073.0562.0156.0836.0223.3478.1132.6976.227,1.0543.343.3613.1261.6464.0877.8538-.0217.1263.2641.3467.3825.5716.353.2506.5729.8785.5732,1.1766-.065.0358-.0775.0635-.1576.0963-.236.0817-.0035.1603-.0324.2344-.0787.0046.1553.0014.306.0071.4619.0239,1.2857,1.3262,1.4637,1.4274.322.1425-1.5618.0158-3.1056-.2416-4.6655.0403-.1674.0573-.3708.0111-.644ZM69.7749,49.7473c-.0123.0696-.0104.1223-.0168.1851-.0718.2636-.142.5206-.2134.7731-.2454.022-.4478.0502-.4902.0922-.0586.0209-.1113.0396-.1659.0587-.02-.0445-.0483-.0701-.0922-.0438-.0285.0147-.0493.03-.0696.0486-.0015.0018-.0288.0305-.0557.0583-.0055.0061-.0169.0167-.0255.0252-.0269.0269-.0527.0511-.0734.068-.0093.0081-.0185.0164-.0265.0228l-.0368.0283c-.0897-.1098-.1741-.3328-.2129-.5431-.0653-.295-.0464-.6274-.063-.7709-.0042-.015-.0069-.0432-.017-.045l-.0148-.0364.0078-.0094.0156-.0189.2414-.2947.4412-.5347c.2921-.3451.4163-.5375.4177-.6328.0421-.0317.0842-.0742.1263-.1022.3289-.2249.4996-.2649.5366-.3248.0114-.0007.0225-.0047.0339-.0049.0302.0002.0639.0049.0968.0088-.1161.6638-.237,1.3251-.3436,1.9924Z" style="fill: currentColor; stroke-width: 0px;"/>
  <path d="M17.0922,18.2138c-.0482-.0199-.101-.0199-.1534-.0194.0762-.3353.1371-.6685.2295-1.0068.1571-.5555-.0671-.9397-.3884-1.0425-.0334-.0108-.0689-.0053-.1035-.0099-.2091-.1666-.4938-.1923-.7125-.0255-.018.001-.0355.0049-.0535.0077-.1263-.2822-.3855-.4072-.6463-.3639-.282-.4348-.9108-.3936-1.1703.1229-.0313.0624-.044.1281-.0723.1909-.0841.0063-.1642.0309-.2382.0721-.0129-.1193-.0208-.2373-.035-.357-.0987-1.0019-1.4081-1.048-1.4431-.1608-.0536,1.2136.1468,2.3957.4602,3.5909-.0344.131-.0442.2891.0117.4982l1.3625,5.7437c.1277.5173.2551.7841.3444.8206.0117.0656.0253.1305.0369.1961.1046.5349.1991.8062.2631.8281.0021.0145.005.0289.0071.0433.1161.7324.1948.9741.2289.7386.0441.5074.0782.6492.1132.4328v.0006c-.0014.4946-.0067.7569.001.8116-.0038.0936-.0051.1473-.0027.1586-.0479.5197-.0553.3492.1264-.5311l.0638-.3634c.0297-.1313.0643-.291.1091-.5048l.0326-.1815c.0292-.1141.0608-.2445.0973-.4063l.2745-1.2349c.0735.0487.1929-.1308.3376-.5885.1193-.3926.3168-1.105.4003-1.6737.0596-.3904.0502-.7067-.0575-.809.0186-.1389.0223-.2607.0112-.362.1653-.7849.3298-1.5713.4612-2.3667.0099-.0548.0064-.0958.0109-.1452.1094-.362.2211-.7267.323-1.0604.1705-.5562.0274-.9385-.2297-1.0433Z" style="fill: currentColor; stroke-width: 0px;"/>
  <path d="M11.1987,17.5564c.0473-.1361-.0552-.251-.0701-.3595-.2912-.8411-.7974-1.4982-1.364-2.0264-.0785-.0714-.147-.1099-.2213-.1658-.4425-.4391-.9282-.8096-1.4297-1.0933-.7999-.4685-1.4754-.408-1.6725-.1823-.045.051-.0602.109-.0641.1689-.4937-.1479-1.006-.2598-1.5361-.3301-.8879-.1244-1.4791.2514-1.5598.5993-.0092.0373.0057.0694.0059.1049-.0817.104-.1384.2112-.1384.3129-.0008.1613.0828.2983.2456.3948.0052.018.0144.0345.0222.0519-.2393.1469-.3685.3398-.3669.5188,0,.0668.0176.1304.0435.1914-.0434-.001-.0859-.0027-.1294.0054-.2912-.4291-.9198-.3729-1.1673.1479-.03.063-.0416.1286-.0686.192-.084.0081-.1639.0344-.237.0771-.0153-.1187-.0251-.2363-.0419-.3553-.1213-.9971-1.4311-1.0087-1.4464-.1279-.0273,1.2051.193,2.3743.5204,3.5579-.0329.1307-.0408.2878.0175.4948.4861,1.8831.9469,3.7877,1.3762,5.7142.1238.5146.2488.7813.3379.8204.0112.066.0251.131.0361.197.0993.5339.1911.8055.2548.8292.002.0146.0049.0292.0068.0439.1072.732.183.9754.22.7424.0372.5071.0694.6488.1072.4328v.0011c-.009.4929-.0182.755-.0115.811-.0052.093-.0074.1461-.0053.1583-.0566.5201-.0613.3499.1351-.5284.0225-.1122.041-.226.0632-.3384.0325-.1337.0714-.3017.1221-.5281.0117-.0583.0214-.1175.0331-.1758.031-.1151.0647-.2466.1039-.4112l.2864-1.2345c.0733.0499.1945-.1291.3419-.5877.1222-.3929.3226-1.1072.407-1.6783.0602-.3925.0507-.7105-.0574-.8127.0174-.1312.0234-.2501.0143-.348.0975-.4686.1887-.9393.2742-1.4122.0573.0074.102.016.1653.0227.5217.0557,1.0543.0522,1.5914.019-.0778.0974.1896.1613.8491.1218.4786-.0331,1.3091-.1876,1.9973-.4773l.1289-.0518.1999-.1069.3749-.2063c.2266-.1249.457-.2661.6573-.4017.3084-.2095.5015-.3581.4899-.4702.0095-.0174.0212-.0338.021-.0557.0676-.1763.1064-.342.1284-.4954l.0283-.0719c.0603-.184.1004-.4352.0941-.6568.0019-.2288-.0184-.4615-.0416-.6942l-.072-.3477ZM7.981,18.6732l-.0032.0007s-.0003-.003-.0114.0065l-.2025.1761c-.2977.2701-.6321.5059-.9844.7305-.4594.2866-.7165.4699-.7553.5712-.0723.03-.1394.0677-.2128.0958-.5554.2144-.8572.3351-.8874.3988-.0184.0041-.0352.012-.0536.016-.0594.0132-.1031.0221-.1572.0338.014-.0859.0315-.1709.0449-.257.0096-.0564.0057-.0986.0097-.1492.1058-.3639.214-.7307.3118-1.0668.113-.3874.0711-.6816-.0468-.8654.3632-.0732.7374-.1318,1.1319-.1613.1249-.0097.2537-.0069.381-.0073.0801.0579.1773.1017.3063.104.3594.0115.7557.1495.9942.2689l.16.0786c-.0171.0031-.0015.0063-.006.0101-.0115.0045-.0142.0172-.0193.0159Z" style="fill: currentColor; stroke-width: 0px;"/>
  <path d="M30.7883,28.5271c.4684.0754.704.0303.7131-.0023.0032-.0131-.0266-.0298-.0712-.0489.2843.0327.4345.017.4382-.0002.0021-.0104-.0325-.0269-.0838-.047.0021.0004.0042.0013.0063.0016.3878.0663.5938.0754.6278.0765.0573.0072.092.0111.1078.0125.0768.0157.1502.0307.24.0491,0,0-.2135-.0583-.6221-.213-.1296-.0488-.2525-.1047-.3767-.1592-.0695-.0343-.147-.0728-.2356-.1179-.0712-.0356-.1322-.0797-.1988-.1185-.0535-.0364-.108-.0733-.1722-.118-.2442-.1717-.4738-.382-.7291-.6022.0712-.0486-.0063-.2164-.2969-.5049-.0658-.0605-.1393-.1281-.2187-.201-.0278-.0506-.1033-.1298-.1611-.2016-.1147-.1386-.2346-.2835-.3624-.438-.1458-.1758-.2743-.2719-.385-.2287-.0317-.0483-.0629-.0844-.0938-.1136-.0644-.1658-.11-.3249-.1089-.4536.0017-.0967.0243-.1755.0511-.2341.0432-.0535.0679-.0853.1091-.1847.0085-.0201.0056-.0417.0096-.0626.1099-.1617.2353-.3892.3458-.7056.1888-.5692-.0237-1.0717-.2908-1.12-.0297-.0083-.0596.0012-.0896.0002.004-.0784.0158-.1542.013-.2368-.0062-.1656-.0345-.3271-.0734-.4838.0025-.1097.0121-.2253.0128-.3316.0065-.5441-.2867-.7811-.5914-.7948-.0355-.0421-.0698-.0931-.1055-.1299-.164-.1752-.3947-.3712-.4109-.3808-.057-.0602-.1166-.1303-.2021-.1687-.7057-.5242-1.6876-.5908-2.6201-.4648-.4731.0504-.9445.1905-1.4077.3673-.2344.0818-.4542.2086-.683.3143-.2083.1495-.3893.3671-.5865.5393-.2216.1707-.4606.3531-.6744.5455-.2271.1103-.4937.3022-.6469.6074-.395.5602-.6982,1.0802-.9466,1.6586-.228.5504-.5071,1.2382-.5378,2.1314-.0015.1118-.0006.2229.0081.3375l.0161.1711.011.0856.0131.1431.0073.021.0582.1679c.0327.1302.076.2781.1236.4105.1828.4524.4348.7853.7199,1.0659.5729.5515,1.2266.8054,1.859.9222.7272.1057,1.0834-.0756,1.0976-.1506.0718-.0071.1447-.011.2153-.0219.6091-.1244.8484-.3205.8547-.3779.0132-.0055.0279-.0096.0409-.0153.5297-.2244.7399-.4151.7307-.446-.0049-.0131-.0462-.0074-.1045.0059.3135-.1541.459-.2664.4523-.2828-.004-.0095-.0474-.0007-.1092.0154.0007-.0003.0015-.0006.0023-.0009.422-.1898.6378-.3147.6876-.3444.0928-.0459.1464-.0745.1464-.0745-.0016.0005-.0029.0009-.0045.0014.4531-.1861.3102-.1029-.5084.1255-.162.0471-.3284.0818-.494.1188-.0918.017-.1933.0355-.3111.0555-.1089.0185-.2145.0214-.3223.0331-.0692.0037-.135.0076-.2162.0108-.3681.0139-.7304-.043-1.025-.152.0176-.0693-.1012-.188-.3253-.3766-.2111-.1677-.4712-.5579-.4819-.743-.0179-.0919-.0079-.1214-.059-.129-.0062.017-.0333.0244-.0537.0347-.0007-.0258-.0026-.0598-.0046-.0907.0119-.0187.0253-.0333.0421-.0371l.215-.1946c.1721-.16.4672-.4345.7377-.6286.0341-.0239.0533-.0486.0805-.0729.2507-.1111.5099-.191.606-.1968.0841.0125.0367-.1929.0027-.4604-.0076-.0488-.0209-.0974-.0345-.1454.0111-.0065.0213-.0141.0326-.0203.091-.0162.1811-.0255.2612-.0099.1057.0265.2336-.1313.3687-.3492.0865.3767.1795.8913.4439,1.4851.3036.6776.7513,1.1783,1.1967,1.5358.9117.7064,1.7981.9858,2.7225,1.1489.3897.0285.634-.0065.6931-.075.0494.0101.0966.0187.1503.0317.4317.0926.7039.0771.7321.0242.0118.0023.0215.0053.0334.0075Z" style="fill: currentColor; stroke-width: 0px;"/>
  <path d="M46.94,26.2694c.1186.4646.5748,1.2864,1.1474,1.7408.3904.3312.7679.4775.9261.4175.1295.0695.2505.1186.36.1484.8932.4671,1.9736.6819,3.1515.4706.0668-.0132.1133-.0408.1743-.0587.2887-.047.5929-.1432.896-.2713.6796.5198,1.3868.9794,2.119,1.3565.3448.1615.5638.193.6332.1358.0353.0192.0687.0444.1041.0632.3183.1685.522.1984.5695.1609.0076.004.0149.0092.0225.0132.4378.2141.5824.2353.476.1028.2796.1652.3749.1953.2883.0809.0062.0051.0118.0107.0179.0157.2432.1996.3771.2781.396.2891.0441.0367.0773.064.081.0626.2272.2188.1368.1636-.188-.2877-.0847-.1151-.1591-.2341-.2397-.3508-.024-.0379-.0348-.0568-.0633-.1013-.0367-.0558-.0679-.1134-.1038-.1696-.0275-.0527-.0427-.0867-.0783-.1523-.1288-.2211-.2376-.4551-.3447-.6866.0695-.0334.0756-.1872.0027-.473-.129-.4122-.3521-1.3216-.6431-1.2665-.0247-.0572-.0527-.1025-.083-.1395-.1251-.4602-.234-.9187-.3289-1.3632-.0043-.0282-.0168-.0443-.0242-.0681.0029-.2269.0131-.4502.0295-.6536.0295-.335-.1733-.4465-.4248-.3919-.0518.0115-.105.0347-.1572.0606-.001-.0061-.0022-.0122-.0032-.0183.0024-.1883.0138-.3781.0399-.5704.0334-.2333-.0916-.3507-.2805-.3815-.1168-.2664-.3022-.4134-.4861-.4438-.0367-.0042-.0696.0099-.105.0129-.0991-.0568-.2016-.0928-.3011-.0854-.1569.0126-.2968.0883-.3984.2241-.0186.0057-.0357.0151-.0538.023-.1913-.2595-.4749-.2972-.7175-.179-.3815-.3142-.9705-.0416-1.0869.4447-.017.0628-.0308.1137-.0472.1742-.0737.0277-.1404.067-.2.1133-.0345-.0859-.0605-.168-.1034-.2577-.1697-.3669-.5776-.4755-.9081-.3726-.3354.0953-.5737.4061-.4944.7144.0897.3642.1464.5966.1974.7159.005-.0016.015.0654.0183.0054l.0126.0914c.0039.0257.0087-.0132.0087-.0132.0162-.0394.0305.0121.0486.0126.0179.0127.0361.022.0588.0303.0019.0005.0069.0024.009.0029.0262.1051.0577.2078.0924.309-.1415.0868-.305.1631-.5002.2006-.5226.1025-1.1763-.0004-1.7015-.3771-.2811-.1956-.4691-.335-.5641-.3365-.0317-.0435-.0687-.0788-.0984-.1252-.2194-.3477-.3455-.5613-.4091-.5778-.0042-.0131-.0114-.0242-.0154-.0374-.1377-.4501-.1791-.7101-.2184-.7128-.0105-.0022-.0233.0292-.035.0764-.0164-.3146-.0042-.4856-.0298-.4899-.0062-.002-.0254.0377-.0469.0971.0002-.0013.0002-.0026.0004-.0038.0408-.2532.0956-.4391.1337-.5624.0284-.1024.0493-.1498.0536-.1689.019-.0455.0344-.0823.0433-.1047.0912-.1772.157-.2685.157-.2685-.041.0564-.0815.1123-.1153.1589-.0779.1066-.1885.2725-.3118.515-.029.0604-.0428.1293-.0687.1917-.0641.1212-.1505.3163-.2288.6191-.0077.0323-.0069.0678-.0138.1005-.0379.1269-.0753.2813-.1008.4941-.0441.4217-.0233.8661.0621,1.3129-.1068-.0501-.1524.1874-.0081.7615Z" style="fill: currentColor; stroke-width: 0px;"/>
  <path d="M30.6975,33.9456c-.043-.032-.0872-.0648-.1292-.0959,0,0,.0434.0339.1292.0959Z" style="fill: currentColor; stroke-width: 0px;"/>
  <path d="M40.443,35.7597c.2025-.014.8278-.0924,1.822-.6559.5667-.3261,1.3923-.9641,1.912-1.9972.545-1.061.5791-2.2028.6163-3.0146.0399-1.1971-.0786-2.1553-.2275-2.4404-.0337-.4387-.0883-.8141-.153-1.1227-.0881-.8809-.2112-1.7613-.4056-2.6353-.0789-.3627-.1704-.7232-.2687-1.0829-.0972-.3484-.2145-.7874-.501-1.3061-.0743-.1296-.1566-.2614-.2568-.3947-.0538-.0703-.0945-.124-.1688-.2072l-.1621-.1729c-.2903-.2823-.5461-.4453-.7816-.5853-.4423-.2524-.7932-.4128-1.2227-.5782-.2424-.0899-.4717-.1577-.6914-.2123-1.2241-.3943-2.5917-.5142-3.9683-.1095-1.2313.3715-2.0922,1.1449-2.5475,1.8204-.4751.6837-.601,1.2927-.5745,1.5769.015.1309.0581.188.1208.1947-.0015.0041-.0019.0087-.0034.0128-.1249.3113-.2194.6449-.2812.9937-.0213.2187-.0565.376-.0485.6575l.0146.3761.0111.1813c.0076.061.027.1139.037.1733l.0016.0085.0307.1521c.0021.0104.0063.0198.0085.0302.0411.1904.09.3747.1537.5489.0089.025.0201.0485.0295.0732.0637.1642.1306.3256.2117.4764.0438.0837.0964.1605.1451.2407.0538.0864.1022.1771.161.2592.1223.1735.2537.3386.3961.4907.887.9473,2.0591,1.3328,3.0646,1.295,1.0305-.0432,1.7534-.5447,2.0106-.8687l.112-.0778c.0308-.0897.0321-.163.0198-.2277.1391-.2368.1935-.4393.119-.5536-.0616-.0984-.2144-.1321-.4403-.0941-.0103-.0127-.0317-.0173-.0455-.0275.5047-.4873.7428-.9238.6276-1.1227-.0204-.0366-.063-.0552-.101-.0777.3069-.3821.4327-.711.3557-.8972-.1356-.3072-.4976-.2581-1.244.1061-.1498.0751-.3066.1514-.4689.2322-.056-.0518-.1349-.0849-.2505-.0839.2607-.2013.5096-.3968.7096-.5828.2224-.2078.3137-.3497.3688-.5011.0691-.1627.0722-.3272.0258-.463-.04-.1107-.1073-.1827-.1737-.2507.2064-.0118.429-.004.6611.0298.2251.0325.4568.0858.6863.1578.1244.0377.2057.0673.2222.0624.0097-.0102-.0114.0204.0195-.0251l.0115-.0169c.0352.0466.0745.1036.1223.1987.1187.2434.2554.5646.3727.8485.2411.587.4535,1.1888.6371,1.8021.3668,1.2264.6252,2.4982.7529,3.7928.1458,1.3844.1376,2.1735-.5961,3.0013-.7867.8267-1.4951,1.1646-1.572,1.2913-.1536.0699-.3035.1458-.4621.2064-1.3288.4849-2.0866.6149-2.1644.6837-.0372.0054-.0744.0145-.1116.0196-1.5173.1691-2.3136.0247-2.3195.0786-.0027.0106.065.0334.1896.0604-.9555-.1072-1.4329-.266-1.4402-.2296,0,0,.0973.0462.2876.111-.7642-.2065-1.3151-.4384-1.6784-.5989-.1905-.0916-.3412-.164-.4869-.234-.144-.0802-.2716-.1512-.3916-.218-.0801-.0498-.1588-.0991-.2241-.1431-.1612-.1076-.2794-.1909-.3601-.2493.1064.079.2173.1613.3524.2615.325.234.8317.5644,1.5618.9139.151.0707.3102.1235.4647.1871.0585.0262.1183.053.1922.0832.1157.0482.2577.1033.4125.1602.006.0021.012.0043.0181.0064.3434.1254.7758.2617,1.3225.3734.0715.015.1454.0192.2173.0325.3779.0806.8779.1656,1.5145.1932,1.2358.0396,2.4542-.1104,3.6691-.4778-.0763.0527-.0765.0787.0204.0806Z" style="fill: currentColor; stroke-width: 0px;"/>
  <path d="M65.4992,30.3559c.9423-.1664,1.3583-.4128,1.3602-.4668.0203-.0066.0419-.0095.0621-.0163.8751-.3094,1.2506-.5878,1.2393-.6179-.0051-.0137-.076.0056-.1782.0372.2028-.0947.3772-.1843.4961-.2549.1933-.1167.2851-.1816.2778-.196-.0052-.0109-.078.0166-.1838.0583.0048-.0024.0099-.0041.0148-.0065.5972-.3082.9327-.5532,1.0608-.6542.1673-.1182.2493-.1909.2493-.1909l-.0003.0002c.0325-.0235.0782-.0546.1063-.0751.0587-.0444.1198-.0907.1805-.1368-.1431.105-.4789.3321-1.0586.6071-.311.1497-.635.2627-.9603.3675-.1036.0314-.1971.0612-.3182.0952-.2487.066-.5007.1003-.7519.1419-.05.007-.087.0143-.1403.0212-.6133.0779-1.2245.0598-1.816-.0251.017-.0694-.2781-.1847-.8264-.3716-.2418-.0944-.5723-.2457-.83-.4449-.2654-.1974-.4215-.4229-.4704-.5767-.0598-.1496-.0715-.2745-.1307-.3915-.0193-.0414-.0466-.0723-.0781-.0946.0095-.0956.0167-.1855.0217-.2708.0989-.3094.2599-.6371.4691-.9055.3124-.4175.734-.7531,1.1845-.9868.0586-.0272.0995-.0541.1496-.0812.2209-.0678.4383-.1061.6418-.1165.124.0039.2506-.007.3711.0129.2659.036.4519.02.5778-.0387.0015.0064.0076.0119.0093.0182-.2209.1148-.393.234-.4641.3938-.1261.263.0134.6547.7319.7595.1335.0156.2817.011.4301.0027.0278.0699.085.1299.1806.1725.0042.0017.0108.0022.0151.0038-.2815.0968-.5587.1494-.8306.1864-1.1103.0768-1.5607.252-1.6937.6073-.0845.3212.0443.7418,1.1663.8392.6706.0416,1.634-.0289,2.5686-.5259.6382-.3494,1.0275-.733,1.3782-1.1954.3387-.4648.6073-1.0002.737-1.6766.1292-.6671.0786-1.5297-.3075-2.298-.1062-.1967-.1836-.3429-.3472-.5603l-.0972-.1178c-.0838-.1019-.1804-.2083-.2675-.2938-.2775-.2681-.5768-.4689-.861-.6159-1.1475-.5519-1.9752-.4673-2.608-.4009-.3716.0498-.7262.1346-1.0697.239-.326.0218-.7425.1246-1.2358.3752-2.0262,1.0552-3.4418,2.9631-3.7471,5.1457-.0698.5388-.0767,1.1107.0424,1.7108.1106.5929.3942,1.2327.8139,1.7149.8647.9835,1.9588,1.2693,2.8729,1.3552,1.034.064,1.4928-.1439,1.5397-.2213.1082-.0131.2178-.0234.3238-.04Z" style="fill: currentColor; stroke-width: 0px;"/>
  <path d="M154.7984,22.7457c-1.1489-2.296-2.3679-4.433-4.7447-5.6498-3.3561-1.7181-7.3209-1.9997-10.8382-3.2945-1.1909-.4384-.9398-3.0772-1.2302-4.1281-.4772-1.7264-1.3625-3.3337-2.4969-4.7147-1.9997-2.4344-4.8326-3.923-7.9031-4.5061-3.4249-.6504-7.2504-.5921-10.6572.1246-3.561.7491-6.1981,2.6928-9.0756,4.787-1.2932.9411-2.6464,1.8277-4.1531,2.3884-1.7571.6547-3.7549.53-5.5676.1761-1.1568-.2258-2.0571-.8668-2.4878-1.9821-.1968-.5098-.34-1.0862-.3746-1.6323-.0256-.4037.0521-1.1815-.2526-1.4977-.6235-.6473-2.1548,3.5178-2.2284,3.7714-.3187,1.0974-.4223,2.3565-.2459,3.4865.1047.6703-1.5117,1.816-2.0011,2.3135-1.6681,1.6954-3.1447,3.5709-4.4767,5.5392-1.3597,2.0091-2.8273,4.1329-3.8538,6.3345-.1694.3633-.3315.7331-.5496,1.071-.3383.0607-.5219.4391-.5917.7368-.2011.8576.5704,1.2435,1.3271,1.2292.4325-.0082.6458.4413,1.0261.6818.397.2511.8403.4225,1.2904.5512,1.2124.3467,2.4894.3636,3.7303.1767,3.6461-.5493,8.4271-3.8647,12.0277-1.9797-.0285-.0151.2453.4281.087.7448-.3458.7234-1.0435.8205-1.7197,1.074-.5208.1952-1.0463.3601-1.5555.5995-.9969.4687,1.1339.3301,1.3492.2944-.1066.1567-1.6393,2.3187-.7095,1.7028.2024-.287.9581-.6721,1.3607-.8525-.1452.3773-.3245.9988-.3146,1.4003-.0848.319,1.354-.7281,1.5356-.8976-.0458.7103-.1176,2.5808.5962,1.0801.5289-1.1122.9299-1.693,1.7674-2.612.5849-.6417,1.5312-1.2511,2.3894-.7023.9083.5807.494,1.6225.1915,2.4185-.3223.8483-1.1996.8795-1.8286,1.4138-.7706.6544.8075.4562,1.0729.4029-.3956.2823-.7497.6236-1.046,1.0087-.0463.0602-.377.9783.1176.6853.4838-.2419.9154-.6442,1.4465-.7843.0419-.0109.4063,1.6871.7403,1.6841.2805.2068.4939-1.4366.6182-1.6797.0942.217.5235,1.7837.8918,1.5905.5456-.2863.0817-1.8292.3274-2.3746.4893-1.0861,1.2938-1.9225,2.0467-2.8294.5328-1.4354,1.7535-2.0474,2.8719-2.9008.829-.6327,2.2225-.6567,3.2146-.9244,1.5411-.4159,3.1002-.7928,4.6175-1.2892,1.6171-.5291,1.9896.2071,3.3315.8803,1.3935.7007,2.9277,1.1152,4.491,1.137-1.0734,1.4589-2.9783,1.707-4.6176,2.1771-1.3679.3923.4578.918,1.0666,1.0359-.369.146-3.38,2.081-2.737,2.646,0-.031,2.179-.972,2.471-1.051-.817.8354-1.5788,2.2841-1.1531,3.4713.2536.707.4244.2689.6271-.1202.369-.7171.8771-1.3506,1.464-1.901.0331.7815-.3497,2.0768.1215,2.7685.1082.1587.9265,1.0795,1.1369.7314.1876-.3104.0981-1.0048.196-1.3755.1398-.5295.3698-1.0344.6777-1.4873.4747-.6984,1.028-.9642,1.768-1.319.0164.7726.1286,1.7048.758,2.239.044.3116,1.0773.7534.997.343.0827-1.6396-.0048-3.4565.8152-4.9379.2908-.5252.8066-.8566,1.1139-1.3602.494-.8097.7285-1.6874,1.2746-2.4957,1.1086-1.6409,2.1859-3.3027,3.2892-4.9471.4361-.6498.8663-1.3107,1.4077-1.8798.6418-.6747,2.3538-.2477,3.2312-.2233,3.0875.0856,6.703.9004,8.83,3.3254,1.9601,2.2348,2.3928,5.4564,1.0741,8.1234-1.2994,2.6277-3.9764,4.0922-6.5375,5.257-2.4947,1.1346-6.6763,2.2339-7.8575,4.9883-.5821,1.3574-.2554,2.8924-.3095,4.3186-.0599,1.5789-.6139,3.2611-1.7543,4.391-2.8761,2.8496-6.8547.1733-10.1492-.0957-.5675-.0464-1.1407-.0353-1.7029.0602-.1288.0219-1.0831.5145-.4041.6149,1.3376.2004,2.6736.4202,3.9934.7184,2.425.5479,4.8093,1.7331,7.3378,1.0155,3.3184-.9417,4.45-5.298,4.3298-8.3735-.1051-2.6896,2.2722-3.8658,4.404-4.7874,2.2001-.951,4.3862-2.0616,6.4108-3.3412,4.2024-2.6561,7.0342-7.8782,4.8632-12.7817ZM92.5728,22.3975c-.0317.4047-1.3545.9691-1.7063,1.1929-.5315.0172-1.063.0343-1.5945.0515,1.1659-1.2516,2.3318-2.5033,3.4977-3.7549-.0656.8369-.1312,1.6737-.1969,2.5106ZM103.3754,15.8847c-.6091.8962-2.5048,3.4248-2.572,3.319-.8745.4567-1.2949.9779-1.7659-.1019-.3132-.7183-.6435-1.2309-1.4073-1.4927-.563-.193-1.0764-.3928-1.1028-1.0775-.0372-.9747.0419-2.3749.47-3.246.8098-1.6304,2.9251-1.7325,4.518-1.519.5384.283,1.1692.4856,1.5097,1.0355.6256,1.0103.3862,1.9861.3503,3.0825Z" style="fill: currentColor; stroke-width: 0px;"/>
</svg>